# xmcd
#
# Track frame offsets:
#	150
#	9880
#	21854
#	39096
#	50405
#	70934
#	82513
#	97426
#	113790
#	125077
#	138290
#	158335
#	170968
#	183034
#	192483
#	203344
#	214691
#	222192
#	234825
#	246850
#
# Disc length: 3483 seconds
#
# Revision: 0
# Processed by: cddbd v1.5.2PL0 Copyright (c) Steve Scherf et al.
# Submitted via: EasyCDDAExtractor 16.0.6.1
#
DISCID=030d9914
DTITLE=Συλλογικός δίσκος - Τα μεγάλα τραγούδια-Γ. Σπανός 1
DYEAR=2010
DGENRE=Ποικίλη
TTITLE0=Χωματά Καίτη - Μιά αγάπη για το καλοκαίρι [Γ. Παπαστεφάνου]
TTITLE1=Μοσχολιού Βίκυ - Ναύτης βγήκε στη στεριά [Μ. Ελευθερίου]
TTITLE2=Καράλης Κώστας - Σπασμένο καράβι [Γιάννης Σκαρίμπας]
TTITLE3=Αρλέτα - Μιά φορά θυμάμαι [Γ. Παπαστεφάνου]
TTITLE4=Δήμου Ελένη - Προσωπικά [Λίνα Νικολακοπούλου]
TTITLE5=Βιολάρης Μιχάλης - Ήρθες εψές [Σωτήρης Σκίπης]
TTITLE6=Ψαριανός Δημήτρης - Σαν με κοιτάς [Αλέξης Αλεξόπουλος]
TTITLE7=Μαρινέλλα - Μιά Κυριακή [Λ. Παπαδόπουλος]
TTITLE8=Μακεδόνας Κώστας - Πού νά 'βρω ένα ζεϊμπέκικο [Λ. Παπαδόπουλος]
TTITLE9=Γαλάνη Δήμητρα - Μη μού μιλάς γι' αγάπη [Κ. Ασημακόπουλος]
TTITLE10=Μαθές Γιάννης - Φταίμε κι οι δυό [Πυθαγόρας]
TTITLE11=Αστεριάδη Πόπη - Ω, χαμηλώστε αυτό το φως [Μαρία Πολυδούρη]
TTITLE12=Πουλόπουλος Γιάννης - Ποιος μού πήρε τη χαρά [Άκος Δασκαλόπουλος]
TTITLE13=Φόνσου Άννα - Θέλω τα όπα μου [Αλέκος Σακελλάριος]
TTITLE14=Μαβίλη Αλέκα - Ο παλιός μας έρωτας [Ναπολέων Λαπαθιώτης]
TTITLE15=Χωματά Καίτη - Στον ουρανό είναι ένα στέρι [Αλέκος Σακελλάριος]
TTITLE16=Γιοβάννα - Ο Λιναρντό [Αλέξης Αλεξόπουλος]
TTITLE17=Κωνσταντίνου Γιώργος-Μουστάκας Σωτήρης - Φρέρε Ζακ [Αλέκος Σακελλάριο
TTITLE17=ς]
TTITLE18=Κανελλίδου Αλέκα - Μαγγανοπήγαδο [Πυθαγόρας]
TTITLE19=Μοσχολιού Βίκυ - Ξύπνησε η πόλη [Λ. Παπαδόπουλος]
EXTD=
EXTT0=
EXTT1=
EXTT2=
EXTT3=
EXTT4=
EXTT5=
EXTT6=
EXTT7=
EXTT8=
EXTT9=
EXTT10=
EXTT11=
EXTT12=
EXTT13=
EXTT14=
EXTT15=
EXTT16=
EXTT17=
EXTT18=
EXTT19=
PLAYORDER=
